<svg width="52" height="56" fill="none" xmlns="http://www.w3.org/2000/svg"><path d="M4 4h48l-4 44-20 8-20-8L4 4z" fill="#F0EBFF"/><path fill-rule="evenodd" clip-rule="evenodd" d="M1.004 0H0l.09 1L4 44l20 8 20-8 3.91-43L48 0H1.004zm.091 1l.364 4H46.54l.364-4H1.095zm40.812 5H6.093l.101 1.132-.498.045-.498.044L5.089 6H1.55l3.39 37.3L24 50.922l19.06-7.624L46.45 6h-3.54l-.108 1.221-.498-.044-.498-.045.1-1.132zM6.092 11.62l-.498.044.396 4.442.498-.045.498-.044-.396-4.442-.498.044zm.791 8.884l-.498.044.396 4.442.498-.044.498-.044-.396-4.443-.498.045zm.792 8.884l-.498.045.396 4.442.498-.044.498-.045-.396-4.442-.498.044zm.792 8.885l-.498.044.198 2.221 1.979.808.189-.463.189-.463-1.415-.577-.144-1.614-.498.044zm5.826 4.226l-.189.462 3.959 1.616.188-.463.19-.463-3.959-1.615-.189.463zm7.917 3.23l-.19.463L24 47l1.98-.808-.19-.463-.189-.463L24 45.92l-1.601-.654-.19.463zm7.539-1.615l.189.463 3.958-1.615-.19-.463-.188-.463-3.958 1.615.189.463zm7.916-3.23l.19.462 1.978-.807.198-2.222-.498-.044-.498-.044-.144 1.614-1.415.577.19.463zm2.264-7.053l.498.044.396-4.442-.498-.045-.498-.044-.396 4.442.498.045zm.792-8.885l.498.044.396-4.442-.498-.044-.498-.045-.396 4.443.498.044zm.791-8.885l.498.045.396-4.443-.498-.044-.498-.044-.396 4.442.498.044z" fill="#7859CF"/></svg>